<?xml version="1.0" encoding="UTF-8" standalone="no"?>
<svg
   version="1.1"
   id="Layer_1"
   x="0px"
   y="0px"
   width="100%"
   viewBox="0 0 1150 614"
   enable-background="new 0 0 1150 614"
   xml:space="preserve"
   sodipodi:docname="logo-uam.svg"
   inkscape:version="1.4.3 (0d15f75, 2025-12-25)"
   xmlns:inkscape="http://www.inkscape.org/namespaces/inkscape"
   xmlns:sodipodi="http://sodipodi.sourceforge.net/DTD/sodipodi-0.dtd"
   xmlns="http://www.w3.org/2000/svg"
   xmlns:svg="http://www.w3.org/2000/svg"><defs
   id="defs50" /><sodipodi:namedview
   id="namedview50"
   pagecolor="#ffffff"
   bordercolor="#000000"
   borderopacity="0.25"
   inkscape:showpageshadow="2"
   inkscape:pageopacity="0.0"
   inkscape:pagecheckerboard="0"
   inkscape:deskcolor="#d1d1d1"
   inkscape:zoom="0.76521739"
   inkscape:cx="575"
   inkscape:cy="306.44886"
   inkscape:window-width="2087"
   inkscape:window-height="1186"
   inkscape:window-x="0"
   inkscape:window-y="30"
   inkscape:window-maximized="0"
   inkscape:current-layer="Layer_1" />

<path
   fill="#2A702B"
   opacity="1.000000"
   stroke="none"
   d=" M1140.992310,204.009995   C1144.809082,203.983856 1147.483643,205.688019 1149.086914,209.832733   C1149.518311,210.617264 1149.794312,210.819687 1150.070435,211.022125   C1150.070435,211.022125 1149.993896,211.000412 1149.958740,211.434296   C1149.944824,215.030914 1149.985107,218.193649 1149.984863,221.356384   C1149.970825,344.730988 1149.950195,468.105560 1149.980103,591.480164   C1149.980347,592.653503 1150.645386,593.826721 1151.000000,595.000000   C1151.000000,595.444458 1151.000000,595.888916 1151.000000,596.666626   C1149.923340,597.906311 1148.846802,598.812744 1147.152588,599.892944   C1146.028687,600.664734 1145.522217,601.262756 1145.015869,601.860840   C1144.640381,601.924744 1144.264893,601.988647 1143.119873,601.922241   C1118.781250,601.851379 1095.212280,601.910706 1071.643311,601.970093   C1069.527832,599.933960 1067.412476,597.897766 1065.261841,595.068970   C1065.152344,592.280884 1065.013062,590.285339 1065.012939,588.289795   C1065.009277,504.527771 1065.018799,420.765778 1065.023193,337.003754   C1065.023438,333.673584 1065.051147,330.340637 1064.895142,327.017029   C1064.877197,326.636078 1063.750366,326.307220 1063.137695,325.954224   C1055.420044,335.163605 1047.698120,344.369385 1039.986084,353.583466   C1033.217651,361.670197 1026.540161,369.834717 1019.676147,377.839355   C1012.593994,386.098419 1005.291992,394.168488 998.166321,402.390656   C991.481873,410.103699 984.898254,417.904175 978.277466,425.672211   C971.338684,433.813232 964.425598,441.976196 957.465515,450.098877   C954.886108,453.109161 952.349915,456.178772 949.536621,458.961090   C945.269409,463.181244 940.003418,463.203094 936.123230,458.764679   C926.358276,447.594666 916.838013,436.211151 907.161804,424.963043   C900.054749,416.701355 892.808533,408.559296 885.712158,400.288574   C878.964783,392.424713 872.365234,384.434235 865.637085,376.553741   C860.608276,370.663727 855.417542,364.911652 850.408325,359.005371   C843.707703,351.104706 837.135132,343.095581 830.460144,335.172943   C828.227112,332.522552 825.848694,329.994690 823.299866,326.817261   C819.046753,325.536652 821.123779,328.726746 821.122314,329.833801   C821.006958,417.552338 821.016724,505.271057 821.017029,592.989746   C821.577454,597.755676 818.018921,599.705872 814.075684,601.881409   C789.731873,601.861084 766.203735,601.909973 742.675537,601.958862   C736.739502,601.196106 736.310120,596.245605 735.129639,591.083252   C735.210510,473.249176 735.212219,356.260529 735.202393,239.271912   C735.201721,231.109116 735.116882,222.946304 735.071228,214.783508   C735.769897,210.172913 737.797180,206.415024 742.792114,204.116348   C772.459656,204.135376 801.305176,204.072220 830.150757,204.009064   C837.299927,205.001678 840.796021,210.933258 844.947327,215.579086   C853.046631,224.643295 860.532227,234.255203 868.294678,243.621460   C875.860962,252.751022 883.423706,261.883881 891.046753,270.966003   C898.989929,280.429504 907.059814,289.786926 914.969666,299.277985   C922.559753,308.385529 930.083740,317.550354 937.498230,326.801056   C940.591675,330.660583 944.001953,331.168793 947.345337,327.293579   C954.551575,318.941315 961.473511,310.344513 968.581360,301.906433   C976.286499,292.759308 984.086914,283.692505 991.816162,274.565643   C1000.819153,263.934753 1009.834229,253.313629 1018.762817,242.620453   C1028.254761,231.252701 1037.583374,219.747772 1047.159668,208.452301   C1048.673706,206.666473 1051.118286,205.669708 1053.924683,204.251923   C1083.475220,204.133820 1112.233765,204.071915 1140.992310,204.009995  z"
   id="path2" />
<path
   fill="#2A702B"
   opacity="1.000000"
   stroke="none"
   d=" M0.999999,210.333328   C3.333998,208.011414 5.667998,206.022812 8.833609,204.093811   C32.760014,204.121063 55.854805,204.088745 78.949600,204.056427   C81.672707,206.357712 84.395813,208.658981 86.964478,211.784454   C86.855988,214.439651 86.941902,216.270645 86.942146,218.101639   C86.953224,300.912903 86.948372,383.724152 86.997910,466.535370   C86.999557,469.297363 87.542542,472.059021 87.833191,474.820831   C89.086487,488.031738 91.120811,501.089844 98.126587,512.670288   C105.562714,524.962219 116.525101,532.483521 130.494278,536.032471   C144.024704,539.470032 157.393875,539.046265 171.164551,537.287842   C183.429901,535.721619 193.326080,529.974854 202.856552,523.224243   C206.480576,520.657288 209.317734,516.495667 211.528641,512.513855   C216.817932,502.988098 220.016922,492.683990 220.955383,481.753784   C221.265396,478.142914 221.610916,474.535126 221.989380,470.005157   C222.042755,384.027679 222.046982,298.970978 222.051193,213.914291   C222.854767,209.522598 225.202332,206.282288 230.008636,204.217926   C253.820602,204.142410 276.850525,204.141312 299.880463,204.140228   C304.358887,206.106567 308.027527,208.730896 308.070526,215.128906   C308.022186,304.992554 308.013458,393.996155 308.004730,482.999786   C308.762024,511.111603 301.616272,536.996948 285.492981,560.097473   C273.268616,577.611755 257.099426,590.585754 237.536575,599.222351   C221.510468,606.297546 204.869904,611.114441 187.340317,612.629272   C186.174423,612.730042 185.085175,613.717773 183.980148,614.646484   C181.629440,615.000000 179.258896,615.000000 176.059769,614.999512   C173.927948,614.577026 172.627182,613.798706 171.321030,613.789551   C161.422028,613.719971 151.520325,613.710571 141.623138,613.887207   C138.409836,613.944580 135.207413,614.611755 132.000000,615.000000   C129.629440,615.000000 127.258888,615.000000 124.440918,614.649170   C123.306427,613.952515 122.652763,613.416199 121.927345,613.288818   C105.184738,610.351013 88.693054,606.854370 73.016586,599.720154   C47.045128,587.900757 26.685061,570.517578 14.579882,544.274902   C9.544874,533.359558 5.152199,522.249512 3.746613,510.143707   C3.461628,507.689240 1.947493,505.377533 1.000004,503.000000   C1.000000,498.310760 1.000000,493.621490 1.254355,488.137695   C1.675766,485.703766 1.988608,484.064423 1.989001,482.424988   C2.010180,394.198151 2.011383,305.971344 1.960798,217.744537   C1.959700,215.829498 1.334216,213.914841 1.000000,212.000000   C1.000000,211.555557 1.000000,211.111099 0.999999,210.333328  z"
   id="path3" />

<path
   fill="#6C8D68"
   opacity="1.000000"
   stroke="none"
   d=" M1151.000000,594.531372   C1150.645386,593.826721 1149.980347,592.653503 1149.980103,591.480164   C1149.950195,468.105560 1149.970825,344.730988 1149.984863,221.356384   C1149.985107,218.193649 1149.944824,215.030914 1149.969116,211.395889   C1150.176880,210.963272 1150.338989,211.002930 1150.750488,211.021286   C1151.000000,338.687561 1151.000000,466.375122 1151.000000,594.531372  z"
   id="path5" />
<path
   fill="#3C7143"
   opacity="1.000000"
   stroke="none"
   d=" M1.000000,212.468658   C1.334216,213.914841 1.959700,215.829498 1.960798,217.744537   C2.011383,305.971344 2.010180,394.198151 1.989001,482.424988   C1.988608,484.064423 1.675766,485.703766 1.254355,487.671570   C1.000000,396.312439 1.000000,304.624878 1.000000,212.468658  z"
   id="path6" />
<path
   fill="#7AB6D3"
   opacity="1.000000"
   stroke="none"
   d=" M601.531067,3.314318   C601.862305,2.797230 602.193542,2.280148 602.262390,1.381532   C646.020874,1.000000 690.041809,1.000000 734.531372,1.000003   C734.929382,1.400216 734.858765,1.800426 734.468872,2.653985   C709.053711,3.084725 683.957764,3.021016 658.861877,3.052877   C639.751526,3.077139 620.641357,3.222717 601.531067,3.314318  z"
   id="path7" />
<path
   fill="#B6DBB6"
   opacity="1.000000"
   stroke="none"
   d=" M132.468658,615.000000   C135.207413,614.611755 138.409836,613.944580 141.623138,613.887207   C151.520325,613.710571 161.422028,613.719971 171.321030,613.789551   C172.627182,613.798706 173.927948,614.577026 175.615601,614.999512   C161.645767,615.000000 147.291550,615.000000 132.468658,615.000000  z"
   id="path8" />
<path
   fill="#2B702C"
   opacity="1.000000"
   stroke="none"
   d=" M432.906799,467.004730   C432.329346,468.144958 431.751892,469.285187 430.779663,470.783142   C430.575317,471.762939 430.765747,472.385010 430.956146,473.007111   C431.038757,473.354248 430.946472,473.646057 430.072449,474.029114   C426.967834,474.599976 423.366028,476.244049 423.285706,472.058868   C423.198486,467.515228 423.818420,463.138275 420.096161,459.646606   C419.918915,459.480347 419.968201,458.994232 420.019714,458.674408   C420.621216,454.938843 421.243439,451.206604 421.860168,447.473511   C422.352417,447.460510 422.844666,447.447510 423.336914,447.434509   C422.503754,446.925842 421.670593,446.417206 420.837433,445.908569   C421.009308,445.030548 421.181213,444.152496 421.863068,443.274841   C424.190704,442.035400 427.290100,441.053467 427.600555,439.510376   C428.836914,433.365234 429.204071,427.045197 429.893097,420.789917   C429.893097,420.789917 429.978729,420.394226 430.373596,420.117920   C433.601532,418.435211 433.448761,416.365967 432.060303,414.022369   C440.523315,389.973694 449.056305,365.949371 457.425201,341.868011   C463.194794,325.266052 468.540680,308.515320 474.430206,291.957062   C481.952850,270.807281 489.870483,249.798325 497.537231,228.699341   C500.230957,221.286179 502.552856,213.735733 505.351135,206.364349   C505.992767,204.674164 507.781738,202.508118 509.259613,202.326477   C510.509644,202.172852 512.818481,204.306183 513.384033,205.884186   C519.445984,222.799225 525.199158,239.824524 531.150818,256.779633   C535.461609,269.060181 539.992065,281.263550 544.335938,293.532684   C549.054749,306.860748 553.694580,320.216949 558.325378,333.575928   C562.956360,346.935577 567.496399,360.326782 572.142334,373.681213   C580.060852,396.442139 588.050232,419.178406 595.973816,441.937592   C603.561523,463.731750 610.938049,485.601044 618.710327,507.328949   C627.184937,531.020203 635.978638,554.597717 644.711975,578.195679   C645.925537,581.474731 647.590210,584.586670 649.829102,588.073242   C666.180237,588.261108 681.748352,588.151672 697.316528,588.042236   C698.335388,588.378601 699.354309,588.715027 700.700073,589.562317   C701.026917,594.182373 701.026917,598.291443 701.026917,602.998413   C637.294861,602.998413 574.227295,602.998413 511.159790,602.998413   C511.111603,598.715820 511.063385,594.433228 511.503662,589.641724   C537.171204,589.097534 562.350342,589.085205 587.529114,588.979309   C589.358154,588.971619 591.184387,588.283752 593.011902,587.912109   C593.011902,587.912109 592.991394,587.993713 593.306152,587.993347   C593.405396,586.963989 593.189880,585.935059 592.974426,584.906067   C589.394836,573.834534 585.864868,562.746704 582.223389,551.695557   C577.337646,536.868042 572.304504,522.088989 567.455200,507.249695   C564.815247,499.170990 562.424500,491.010834 560.124329,482.225830   C559.365417,476.415833 558.816467,471.139099 557.273071,466.171326   C556.463257,463.564972 553.950623,461.303864 550.557556,464.868835   C547.404846,464.879242 544.700073,464.835236 541.864868,464.453766   C537.049377,460.743347 525.996826,461.119598 521.549927,464.846100   C517.728149,464.865479 514.361755,464.826660 510.864502,464.450623   C508.636139,463.409454 506.532623,462.088013 504.442200,462.108459   C495.367157,462.197144 486.293060,462.621185 477.227081,463.087738   C476.127563,463.144318 475.079254,464.196289 473.551697,464.845367   C469.729248,464.865143 466.362305,464.826508 462.867554,464.454895   C458.326813,460.925720 453.953827,461.154419 449.553650,464.846008   C446.065765,464.867676 443.029480,464.831238 439.840881,464.466553   C437.707703,463.661957 435.738007,462.883789 433.742310,462.810211   C432.291779,462.756714 430.806885,463.634674 429.337311,464.097290   C430.527161,465.066437 431.716980,466.035583 432.906799,467.004730  M438.265259,447.730896   C441.842133,448.192352 445.419006,448.653809 449.136353,449.827240   C449.968231,454.726685 453.130707,456.376862 457.744324,455.994720   C461.700623,455.666992 465.660889,455.009064 469.611389,455.064789   C478.887360,455.195648 488.156250,455.833618 497.432159,455.958160   C509.828522,456.124664 522.232056,455.834015 534.625854,456.078217   C539.832703,456.180847 542.782532,454.069214 544.678711,449.100006   C545.479370,448.754852 546.280029,448.409698 547.335449,447.964569   C547.335449,447.964569 547.606873,447.999664 548.203918,447.864899   C548.163513,447.230316 548.123108,446.595703 547.671936,445.335480   C543.082031,431.808777 538.440491,418.299316 533.914307,404.751312   C527.162720,384.541870 520.518005,364.296722 513.779419,344.082886   C508.630890,328.639038 503.394836,313.224426 498.226166,297.787262   C496.990967,294.098175 495.868744,290.371307 494.262787,285.297668   C492.162598,291.167664 490.527100,295.598694 488.989349,300.063416   C484.693024,312.537384 480.443939,325.027618 476.163574,337.507111   C471.522827,351.037323 466.867859,364.562683 461.523529,378.221405   C460.736664,380.848633 459.949768,383.475891 459.154205,386.816681   C458.831848,387.905029 458.509491,388.993378 457.421997,390.097198   C456.636353,390.792236 455.469116,391.338837 455.131012,392.207977   C453.649017,396.017578 452.507538,399.958771 451.054535,403.780731   C448.863922,409.543152 446.495178,415.237640 444.242401,420.976746   C442.382629,425.714691 440.148743,430.364716 438.894257,435.262115   C437.935272,439.005890 438.248047,443.075378 438.265259,447.730896  M446.165680,388.704132   C446.556976,389.262787 446.948242,389.821472 447.339478,390.380127   C447.714508,389.794250 448.089539,389.208374 448.464600,388.622498   C447.755341,388.461060 447.046082,388.299622 446.165680,388.704132  z"
   id="path9" />
<path
   fill="#0288CE"
   opacity="1.000000"
   stroke="none"
   d=" M601.332397,3.587977   C620.641357,3.222717 639.751526,3.077139 658.861877,3.052877   C683.957764,3.021016 709.053711,3.084725 734.620056,3.039608   C735.090454,2.971882 735.017273,3.004520 734.951050,3.438669   C734.883423,44.487621 734.896057,85.102440 734.840881,125.717178   C734.838013,127.817139 734.255310,129.916321 733.942505,132.015854   C728.612244,134.646027 723.388916,137.526443 717.931519,139.859192   C701.925720,146.700821 685.820251,153.309006 669.766235,160.038177   C653.974609,166.657364 638.182007,173.274551 622.419556,179.962708   C606.101990,186.886414 589.823425,193.902100 573.517517,200.853409   C571.872131,201.554855 570.155823,202.089935 568.010620,202.870193   C567.939148,201.354996 567.591797,199.837753 567.843445,198.427368   C570.510681,183.480484 573.468384,168.583038 575.958252,153.607483   C578.859497,136.157089 581.147827,118.603920 584.114441,101.165497   C587.838806,79.272713 592.038696,57.461235 595.919189,35.594425   C597.792053,25.040722 599.403748,14.440688 601.332397,3.587977  z"
   id="path10" />
<path
   fill="#2D702E"
   opacity="1.000000"
   stroke="none"
   d=" M420.560547,446.144531   C421.670593,446.417206 422.503754,446.925842 423.336914,447.434509   C422.844666,447.447510 422.352417,447.460510 421.860168,447.473511   C421.243439,451.206604 420.621216,454.938843 420.019714,458.674408   C419.968201,458.994232 419.918915,459.480347 420.096161,459.646606   C423.818420,463.138275 423.198486,467.515228 423.285706,472.058868   C423.366028,476.244049 426.967834,474.599976 429.864868,474.148865   C427.813202,481.102570 425.368439,488.085175 422.910095,495.063049   C418.436859,507.759857 413.740387,520.382874 409.530090,533.166138   C403.822540,550.495544 398.484985,567.946777 392.720703,585.851746   C392.263855,586.577148 392.101349,586.814575 391.965179,587.070068   C391.965179,587.070068 391.966095,586.968262 391.697083,587.153809   C393.016693,587.900635 394.600128,588.932861 396.194672,588.950317   C412.392944,589.128235 428.593048,589.140625 444.843872,589.649963   C444.939514,591.762939 445.022034,593.425415 445.022003,595.087830   C445.021973,604.100647 445.718048,602.965454 437.436981,602.976257   C398.342926,603.027466 359.248810,603.005615 320.154694,603.009766   C320.119141,598.650940 320.083618,594.292175 320.550415,589.485229   C335.377472,589.037170 349.702454,589.077087 364.026581,588.983704   C365.688599,588.972900 367.345795,588.223145 369.005219,587.816040   C374.703369,572.801514 380.602509,557.859680 386.056702,542.757141   C396.522583,513.777466 406.737976,484.707367 417.051361,455.672668   C418.149017,452.582458 419.207153,449.478241 420.560547,446.144531  z"
   id="path11" />
<path
   fill="#E0FFDE"
   opacity="1.000000"
   stroke="none"
   d=" M734.681152,215.008545   C735.116882,222.946304 735.201721,231.109116 735.202393,239.271912   C735.212219,356.260529 735.210510,473.249176 735.136414,590.713135   C734.710327,589.704346 734.052734,588.220398 734.052124,586.736206   C733.997803,464.053192 733.993652,341.370178 734.000061,218.687180   C734.000061,217.535980 734.189880,216.384796 734.681152,215.008545  z"
   id="path12" />
<path
   fill="#BBDBB5"
   opacity="1.000000"
   stroke="none"
   d=" M1063.499512,326.186462   C1063.750366,326.307220 1064.877197,326.636078 1064.895142,327.017029   C1065.051147,330.340637 1065.023438,333.673584 1065.023193,337.003754   C1065.018799,420.765778 1065.009277,504.527771 1065.012939,588.289795   C1065.013062,590.285339 1065.152344,592.280884 1065.150391,594.756165   C1064.715088,593.599854 1064.043091,591.963989 1064.042114,590.327759   C1063.992798,503.854492 1064.000854,417.381256 1063.995605,330.907990   C1063.995483,329.411560 1063.907959,327.915161 1063.499512,326.186462  z"
   id="path13" />
<path
   fill="#CBE6CB"
   opacity="1.000000"
   stroke="none"
   d=" M821.418335,592.812256   C821.016724,505.271057 821.006958,417.552338 821.122314,329.833801   C821.123779,328.726746 819.046753,325.536652 823.043823,326.600403   C822.679749,328.788452 822.034302,330.599609 822.033325,332.411072   C821.987549,417.658386 821.998779,502.905731 821.994080,588.153076   C821.994019,589.646973 821.880371,591.140869 821.418335,592.812256  z"
   id="path14" />
<path
   fill="#FFFFFF"
   opacity="1.000000"
   stroke="none"
   d=" M308.412659,482.830902   C308.013458,393.996155 308.022186,304.992554 308.103302,215.526184   C308.450562,216.279984 308.965515,217.496460 308.966034,218.713150   C309.003448,306.034851 309.000244,393.356598 308.992249,480.678314   C308.992188,481.339539 308.880249,482.000793 308.412659,482.830902  z"
   id="path15" />
<path
   fill="#B6DBB6"
   opacity="1.000000"
   stroke="none"
   d=" M87.867325,474.363953   C87.542542,472.059021 86.999557,469.297363 86.997910,466.535370   C86.948372,383.724152 86.953224,300.912903 86.942146,218.101639   C86.941902,216.270645 86.855988,214.439651 86.875519,212.116257   C87.293793,212.807510 87.955177,213.991089 87.955391,215.174820   C87.970985,301.418915 87.934097,387.662994 87.867325,474.363953  z"
   id="path16" />
<path
   fill="#DAFFDA"
   opacity="1.000000"
   stroke="none"
   d=" M221.652206,214.114136   C222.046982,298.970978 222.042755,384.027679 222.005081,469.553650   C221.651474,468.849152 221.051712,467.675537 221.051041,466.501556   C221.003494,383.095245 221.003113,299.688873 221.010452,216.282516   C221.010498,215.626343 221.168808,214.970154 221.652206,214.114136  z"
   id="path17" />
<path
   fill="#93B792"
   opacity="1.000000"
   stroke="none"
   d=" M511.317352,603.401489   C574.227295,602.998413 637.294861,602.998413 701.026917,602.998413   C701.026917,598.291443 701.026917,594.182373 701.025635,589.620300   C701.472473,593.949585 701.920593,598.731812 702.414185,603.999512   C700.125488,603.999512 698.514709,603.999451 696.903992,603.999451   C636.921692,603.999512 576.939453,604.001404 516.957153,603.991577   C515.129761,603.991272 513.302307,603.869690 511.317352,603.401489  z"
   id="path18" />
<path
   fill="#79A37D"
   opacity="1.000000"
   stroke="none"
   d=" M320.334229,603.398682   C359.248810,603.005615 398.342926,603.027466 437.436981,602.976257   C445.718048,602.965454 445.021973,604.100647 445.022003,595.087830   C445.022034,593.425415 444.939514,591.762939 445.118561,589.602173   C445.525696,589.074341 445.709320,589.044800 445.892914,589.015320   C445.892914,593.820007 445.892914,598.624695 445.892914,603.741211   C444.810455,603.836182 443.868622,603.990845 442.926758,603.991089   C402.949371,604.000488 362.971985,603.997253 322.994598,603.984863   C322.167633,603.984558 321.340698,603.856262 320.334229,603.398682  z"
   id="path19" />
<path
   fill="#B2E3FF"
   opacity="1.000000"
   stroke="none"
   d=" M734.386108,131.990723   C734.255310,129.916321 734.838013,127.817139 734.840881,125.717178   C734.896057,85.102440 734.883423,44.487621 734.934875,3.401984   C735.323730,4.417171 735.956421,5.902797 735.958374,7.389274   C736.012512,47.488140 736.013977,87.587112 735.952881,127.685959   C735.950684,129.113068 735.220520,130.539078 734.386108,131.990723  z"
   id="path20" />
<path
   fill="#87A985"
   opacity="1.000000"
   stroke="none"
   d=" M541.995361,464.791229   C544.700073,464.835236 547.404846,464.879242 550.897949,464.944641   C552.466492,465.355927 553.246765,465.745789 554.026978,466.135651   C517.501160,466.090759 480.975372,466.039368 444.449554,466.011261   C440.874481,466.008514 437.299316,466.149078 433.588928,465.824158   C435.633545,465.215057 437.813385,465.004944 439.993225,464.794830   C443.029480,464.831238 446.065765,464.867676 450.012787,464.908020   C454.947510,464.870575 458.971436,464.829224 462.995392,464.787872   C466.362305,464.826508 469.729248,464.865143 474.016083,464.906952   C486.955811,464.869354 498.975586,464.828613 510.995392,464.787872   C514.361755,464.826660 517.728149,464.865479 522.014160,464.908295   C529.287720,464.871948 535.641541,464.831573 541.995361,464.791229  z"
   id="path21" />
<path
   fill="#93B88B"
   opacity="1.000000"
   stroke="none"
   d=" M829.934387,203.618134   C801.305176,204.072220 772.459656,204.135376 743.123840,204.121674   C743.301880,203.679749 743.970642,202.994797 744.638428,202.995712   C772.998352,203.034637 801.358154,203.134674 829.934387,203.618134  z"
   id="path22" />
<path
   fill="#90BC8F"
   opacity="1.000000"
   stroke="none"
   d=" M1140.797729,203.618317   C1112.233765,204.071915 1083.475220,204.133820 1054.236206,204.119659   C1054.406616,203.680038 1055.058105,202.997925 1055.708496,202.998810   C1084.006836,203.036911 1112.304932,203.135422 1140.797729,203.618317  z"
   id="path23" />
<path
   fill="#88B089"
   opacity="1.000000"
   stroke="none"
   d=" M592.542480,587.943726   C591.184387,588.283752 589.358154,588.971619 587.529114,588.979309   C562.350342,589.085205 537.171204,589.097534 511.540833,589.194458   C512.350342,588.837769 513.610168,588.058289 514.872253,588.054565   C539.111572,587.983337 563.351257,588.003662 587.590820,588.002869   C589.084900,588.002808 590.578918,587.984863 592.542480,587.943726  z"
   id="path24" />
<path
   fill="#7EAB82"
   opacity="1.000000"
   stroke="none"
   d=" M742.920654,602.346924   C766.203735,601.909973 789.731873,601.861084 813.735596,601.903625   C813.731934,602.352783 813.251953,603.024414 812.773682,603.023193   C789.570923,602.963623 766.368347,602.846069 742.920654,602.346924  z"
   id="path25" />
<path
   fill="#7CA983"
   opacity="1.000000"
   stroke="none"
   d=" M1071.885620,602.363892   C1095.212280,601.910706 1118.781250,601.851379 1142.834961,601.880432   C1142.819092,602.326233 1142.317871,602.996887 1141.817871,602.995972   C1118.587769,602.953247 1095.357910,602.852051 1071.885620,602.363892  z"
   id="path26" />
<path
   fill="#90BC8F"
   opacity="1.000000"
   stroke="none"
   d=" M299.815643,203.690002   C276.850525,204.141312 253.820602,204.142410 230.314072,204.086273   C230.314178,203.677795 230.791382,203.018768 231.267517,203.019547   C254.095352,203.057083 276.923065,203.151627 299.815643,203.690002  z"
   id="path27" />
<path
   fill="#94B88E"
   opacity="1.000000"
   stroke="none"
   d=" M78.836845,203.622604   C55.854805,204.088745 32.760014,204.121063 9.177068,204.097351   C9.352133,203.684128 10.015604,203.014420 10.678525,203.014969   C33.360413,203.033600 56.042248,203.115768 78.836845,203.622604  z"
   id="path28" />
<path
   fill="#2D702E"
   opacity="1.000000"
   stroke="none"
   d=" M429.592041,421.010193   C429.204071,427.045197 428.836914,433.365234 427.600555,439.510376   C427.290100,441.053467 424.190704,442.035400 422.127625,443.063354   C424.351837,435.644470 426.821411,428.437469 429.592041,421.010193  z"
   id="path29" />
<path
   fill="#93B792"
   opacity="1.000000"
   stroke="none"
   d=" M445.763733,588.595398   C445.709320,589.044800 445.525696,589.074341 445.067322,589.151611   C428.593048,589.140625 412.392944,589.128235 396.194672,588.950317   C394.600128,588.932861 393.016693,587.900635 391.747986,587.152710   C393.708008,587.307983 395.345734,587.934326 396.988556,587.947876   C413.203400,588.081909 429.419067,588.114319 445.763733,588.595398  z"
   id="path30" />
<path
   fill="#2D702E"
   opacity="1.000000"
   stroke="none"
   d=" M554.146423,466.464050   C553.246765,465.745789 552.466492,465.355927 551.345947,464.890259   C553.950623,461.303864 556.463257,463.564972 557.273071,466.171326   C558.816467,471.139099 559.365417,476.415833 560.089050,481.831665   C557.989197,476.996826 556.127563,471.894623 554.146423,466.464050  z"
   id="path31" />
<path
   fill="#93BB97"
   opacity="1.000000"
   stroke="none"
   d=" M368.542603,587.896667   C367.345795,588.223145 365.688599,588.972900 364.026581,588.983704   C349.702454,589.077087 335.377472,589.037170 320.595337,589.022949   C321.594666,588.671387 323.049835,588.048584 324.508331,588.040649   C339.031891,587.961426 353.556030,587.983704 368.542603,587.896667  z"
   id="path32" />
<path
   fill="#FFFFFF"
   opacity="1.000000"
   stroke="none"
   d=" M697.060059,587.666016   C681.748352,588.151672 666.180237,588.261108 650.148071,588.202148   C650.368713,587.698608 651.053894,587.069946 651.737793,587.071350   C666.759766,587.101990 681.781738,587.202637 697.060059,587.666016  z"
   id="path33" />
<path
   fill="#2D702E"
   opacity="1.000000"
   stroke="none"
   d=" M439.840881,464.466553   C437.813385,465.004944 435.633545,465.215057 433.224396,465.755737   C432.995087,466.086304 432.971222,466.547394 432.939026,466.776062   C431.716980,466.035583 430.527161,465.066437 429.337311,464.097290   C430.806885,463.634674 432.291779,462.756714 433.742310,462.810211   C435.738007,462.883789 437.707703,463.661957 439.840881,464.466553  z"
   id="path34" />
<path
   fill="#2D702E"
   opacity="1.000000"
   stroke="none"
   d=" M431.908997,414.344482   C433.448761,416.365967 433.601532,418.435211 430.427155,419.922729   C430.643127,418.224731 431.200409,416.445648 431.908997,414.344482  z"
   id="path35" />
<path
   fill="#2D702E"
   opacity="1.000000"
   stroke="none"
   d=" M430.973999,472.672058   C430.765747,472.385010 430.575317,471.762939 430.632477,471.071411   C430.917328,471.446991 430.954620,471.891998 430.973999,472.672058  z"
   id="path36" />
<path
   fill="#88B089"
   opacity="1.000000"
   stroke="none"
   d=" M592.752075,585.077026   C593.189880,585.935059 593.405396,586.963989 593.265381,587.982788   C592.783203,587.064392 592.656494,586.156250 592.752075,585.077026  z"
   id="path37" />
<path
   fill="#7CA983"
   opacity="1.000000"
   stroke="none"
   d=" M1145.304199,601.789429   C1145.522217,601.262756 1146.028687,600.664734 1146.850830,600.016663   C1146.641846,600.550476 1146.117310,601.134277 1145.304199,601.789429  z"
   id="path38" />
<path
   fill="#93B792"
   opacity="1.000000"
   stroke="none"
   d=" M392.172577,586.976440   C392.101349,586.814575 392.263855,586.577148 392.638977,586.248108   C392.834595,586.480957 392.686157,586.729065 392.172577,586.976440  z"
   id="path39" />
<path
   fill="#6C8D68"
   opacity="1.000000"
   stroke="none"
   d=" M1149.982178,210.765015   C1149.794312,210.819687 1149.518311,210.617264 1149.118164,210.184814   C1149.294067,210.139175 1149.593994,210.323532 1149.982178,210.765015  z"
   id="path40" />

<path
   fill="#2D702E"
   opacity="1.000000"
   stroke="none"
   d=" M544.006165,449.179443   C542.782532,454.069214 539.832703,456.180847 534.625854,456.078217   C522.232056,455.834015 509.828522,456.124664 497.432159,455.958160   C488.156250,455.833618 478.887360,455.195648 469.611389,455.064789   C465.660889,455.009064 461.700623,455.666992 457.744324,455.994720   C453.130707,456.376862 449.968231,454.726685 449.534180,449.435059   C481.290070,449.088379 512.648132,449.133911 544.006165,449.179443  z"
   id="path42" />
<path
   fill="#2D702E"
   opacity="1.000000"
   stroke="none"
   d=" M457.804565,390.089478   C456.073212,396.487396 453.981567,402.900513 451.840729,409.297211   C447.715179,421.624115 443.561737,433.941711 438.991760,446.628723   C438.374115,446.996124 438.184601,446.998047 437.995117,447.000000   C438.248047,443.075378 437.935272,439.005890 438.894257,435.262115   C440.148743,430.364716 442.382629,425.714691 444.242401,420.976746   C446.495178,415.237640 448.863922,409.543152 451.054535,403.780731   C452.507538,399.958771 453.649017,396.017578 455.131012,392.207977   C455.469116,391.338837 456.636353,390.792236 457.804565,390.089478  z"
   id="path43" />
<path
   fill="#5B855D"
   opacity="1.000000"
   stroke="none"
   d=" M438.130188,447.365448   C438.184601,446.998047 438.374115,446.996124 438.846802,446.966187   C441.200531,447.291565 443.270508,447.948883 445.341705,447.952942   C478.935425,448.018585 512.529297,448.001404 546.601929,448.033752   C546.280029,448.409698 545.479370,448.754852 544.342407,449.139709   C512.648132,449.133911 481.290070,449.088379 449.463959,449.079071   C445.419006,448.653809 441.842133,448.192352 438.130188,447.365448  z"
   id="path44" />
<path
   fill="#2D702E"
   opacity="1.000000"
   stroke="none"
   d=" M510.864502,464.450623   C498.975586,464.828613 486.955811,464.869354 474.471619,464.848541   C475.079254,464.196289 476.127563,463.144318 477.227081,463.087738   C486.293060,462.621185 495.367157,462.197144 504.442200,462.108459   C506.532623,462.088013 508.636139,463.409454 510.864502,464.450623  z"
   id="path45" />
<path
   fill="#2D702E"
   opacity="1.000000"
   stroke="none"
   d=" M541.864868,464.453766   C535.641541,464.831573 529.287720,464.871948 522.469604,464.850128   C525.996826,461.119598 537.049377,460.743347 541.864868,464.453766  z"
   id="path46" />
<path
   fill="#2D702E"
   opacity="1.000000"
   stroke="none"
   d=" M462.867554,464.454895   C458.971436,464.829224 454.947510,464.870575 450.464417,464.849915   C453.953827,461.154419 458.326813,460.925720 462.867554,464.454895  z"
   id="path47" />
<path
   fill="#2D702E"
   opacity="1.000000"
   stroke="none"
   d=" M461.871307,378.155792   C461.380890,380.603729 460.542694,383.117279 459.433655,385.866974   C459.949768,383.475891 460.736664,380.848633 461.871307,378.155792  z"
   id="path48" />
<path
   fill="#2D702E"
   opacity="1.000000"
   stroke="none"
   d=" M446.251251,388.421143   C447.046082,388.299622 447.755341,388.461060 448.464600,388.622498   C448.089539,389.208374 447.714508,389.794250 447.339478,390.380127   C446.948242,389.821472 446.556976,389.262787 446.251251,388.421143  z"
   id="path49" />
<path
   fill="#5B855D"
   opacity="1.000000"
   stroke="none"
   d=" M547.905396,447.932281   C547.717102,447.548615 547.827332,447.097565 548.010132,446.303833   C548.123108,446.595703 548.163513,447.230316 547.905396,447.932281  z"
   id="path50" />
</svg>
