<?xml version="1.0" encoding="UTF-8" standalone="no"?>
<svg
   version="1.1"
   id="Layer_1"
   x="0px"
   y="0px"
   width="100%"
   viewBox="0 0 1200 1200"
   enable-background="new 0 0 1200 1200"
   xml:space="preserve"
   sodipodi:docname="file-2.svg"
   inkscape:version="1.4.3 (0d15f75, 2025-12-25)"
   xmlns:inkscape="http://www.inkscape.org/namespaces/inkscape"
   xmlns:sodipodi="http://sodipodi.sourceforge.net/DTD/sodipodi-0.dtd"
   xmlns="http://www.w3.org/2000/svg"
   xmlns:svg="http://www.w3.org/2000/svg"><defs
   id="defs47" /><sodipodi:namedview
   id="namedview47"
   pagecolor="#ffffff"
   bordercolor="#000000"
   borderopacity="0.25"
   inkscape:showpageshadow="2"
   inkscape:pageopacity="0.0"
   inkscape:pagecheckerboard="0"
   inkscape:deskcolor="#d1d1d1"
   inkscape:zoom="0.73333333"
   inkscape:cx="599.31818"
   inkscape:cy="599.31818"
   inkscape:window-width="2450"
   inkscape:window-height="1186"
   inkscape:window-x="0"
   inkscape:window-y="30"
   inkscape:window-maximized="0"
   inkscape:current-layer="Layer_1" />

<path
   fill="#2A702B"
   opacity="1.000000"
   stroke="none"
   d=" M856.985657,493.140717   C859.482483,495.038727 862.384827,496.581512 864.409485,498.893066   C876.445740,512.634766 888.349609,526.494446 900.160950,540.430664   C912.276367,554.725586 924.271118,569.123352 936.249695,583.533508   C945.388611,594.527588 954.400879,605.626770 963.511230,616.644653   C965.944885,619.587891 969.199341,619.476868 971.887024,616.498291   C974.643982,613.443115 977.494141,610.463989 980.116760,607.296936   C991.181824,593.934753 1002.080383,580.433594 1013.228699,567.141602   C1022.248413,556.387512 1031.631714,545.938660 1040.683350,535.210632   C1051.141479,522.815613 1061.346558,510.206848 1071.835205,497.838257   C1073.459351,495.923126 1076.011841,494.795380 1078.926025,493.248291   C1090.878296,493.127319 1102.039673,493.031769 1113.201172,493.002441   C1131.826538,492.953461 1150.451904,492.946838 1169.077271,492.922363   C1169.077271,492.922363 1168.995117,492.987061 1168.910889,493.250427   C1169.194702,493.697052 1169.562988,493.880280 1169.931152,494.063477   C1171.510620,495.711639 1173.089966,497.359772 1174.711670,499.769226   C1174.833740,503.025848 1174.982788,505.521179 1174.983398,508.016510   C1174.995605,568.133850 1174.989990,628.251160 1174.991699,688.368469   C1174.993530,753.643616 1174.999268,818.918762 1175.003174,884.193909   C1174.256714,885.704285 1173.510376,887.214722 1172.149414,888.895996   C1171.028687,889.664795 1170.522461,890.262756 1170.016357,890.860718   C1169.640747,890.924683 1169.265015,890.988647 1168.119629,890.922485   C1143.781128,890.851624 1120.212402,890.910889 1096.643555,890.970215   C1094.530273,889.011292 1092.417114,887.052307 1090.276001,884.306274   C1090.169434,881.357666 1090.022095,879.196106 1090.021973,877.034607   C1090.018188,793.284363 1090.028687,709.534119 1090.032837,625.783875   C1090.032959,622.454407 1090.025635,619.123291 1089.880615,615.799133   C1089.871094,615.580383 1088.650879,615.414551 1087.993896,615.224121   C1081.104248,623.600281 1074.290283,632.040161 1067.307617,640.338013   C1056.058350,653.706238 1044.760620,667.034790 1033.364380,680.277771   C1024.225708,690.897339 1014.833069,701.298462 1005.695557,711.918945   C996.565430,722.530945 987.395996,733.122070 978.647217,744.045410   C971.168091,753.383545 964.550354,753.111450 956.239075,742.929443   C947.375549,732.070923 938.170166,721.491638 929.121521,710.784119   C918.056274,697.690308 907.052368,684.544128 895.917908,671.509460   C889.161865,663.600525 882.139221,655.919617 875.361511,648.028748   C866.356079,637.544250 857.472595,626.955017 848.299683,615.817139   C844.047729,614.538818 846.124023,617.727539 846.122559,618.834961   C846.007080,706.553101 846.016785,794.271301 846.017090,881.989563   C846.576904,886.754761 843.017700,888.705078 839.077148,890.882202   C814.732605,890.862000 791.203369,890.911438 767.674072,890.960876   C762.329285,889.778809 760.324158,885.995117 760.057251,880.122925   C760.212891,762.268494 760.213135,645.271606 760.201904,528.274780   C760.201111,520.111450 760.115784,511.948120 760.069763,503.784790   C758.969238,498.013611 763.614868,495.934387 767.800293,493.111786   C798.076416,493.174866 827.531067,493.157776 856.985657,493.140717  z"
   id="path2" />
<path
   fill="#2A702B"
   opacity="1.000000"
   stroke="none"
   d=" M112.809799,765.783081   C115.093109,775.545044 116.255432,785.750610 119.904030,794.972351   C126.545135,811.757751 139.731979,821.885315 157.404739,825.495300   C183.031693,830.730103 207.637573,828.686829 228.532196,811.289551   C236.745773,804.450745 241.332306,794.327698 243.683456,783.829834   C245.435059,776.008972 245.898392,767.899658 246.979874,758.997681   C247.030472,673.026489 247.036652,587.976440 247.042831,502.926331   C247.851929,498.530823 250.202591,495.284424 255.009033,493.213379   C278.823364,493.135925 301.857086,493.131836 324.890808,493.127747   C329.341187,495.121704 333.038086,497.726349 333.070557,504.128906   C333.022278,593.992493 333.013519,682.996094 333.004761,771.999695   C333.567352,855.357544 274.451813,898.376038 200.847504,902.757446   C187.624222,902.720703 175.214996,902.837830 162.805786,902.954956   C162.598251,902.957336 162.390732,902.959656 161.657532,903.052612   C159.836319,903.020142 158.540756,902.896912 157.245193,902.773743   C151.031143,902.180664 144.742706,902.005615 138.617188,900.915161   C121.119644,897.800476 104.206367,892.753357 88.487389,884.229187   C68.570335,873.428406 52.426315,858.572693 41.891090,838.429260   C34.704624,824.688660 29.592754,810.039490 27.965618,794.420654   C27.574461,790.665894 27.300760,786.898865 27.008892,782.210205   C27.022844,687.811279 27.000948,594.339600 26.979050,500.867920   C28.986433,498.256622 30.993818,495.645325 33.833775,493.092987   C57.862759,493.103455 81.059174,493.054962 104.255592,493.006500   C108.969887,493.054138 110.100304,496.854858 111.775856,500.938721   C111.870293,503.235504 111.950859,504.732117 111.950928,506.228729   C111.954826,588.953918 111.940582,671.679138 111.986275,754.404358   C111.988373,758.197388 112.523132,761.990173 112.809799,765.783081  z"
   id="path3" />
<path
   fill="#2B702C"
   opacity="1.000000"
   stroke="none"
   d=" M576.483154,754.993652   C576.483154,754.993591 576.373108,755.109131 576.004700,754.731323   C574.986206,754.229797 574.336243,753.998169 573.686096,753.997742   C536.060852,753.971130 498.435547,753.955566 460.810333,754.001953   C459.882843,754.003052 458.956238,754.712097 458.029236,755.090942   C449.191162,780.051880 440.129211,804.936584 431.600403,830.002747   C426.622711,844.632141 422.497528,859.551514 417.719360,874.845825   C417.255920,875.569092 417.094543,875.808960 416.965912,876.070801   C416.965912,876.070801 416.965912,875.968811 416.694946,876.152405   C417.688934,876.903748 418.949951,877.954407 420.219360,877.964661   C433.188904,878.069031 446.160004,878.034424 459.130005,877.943237   C460.511780,877.933533 461.889313,877.317566 463.268799,876.982849   C463.268799,876.982849 463.371704,876.901245 463.942322,877.168213   C464.862091,877.285767 465.211273,877.136292 465.560425,876.986877   C465.560425,876.986877 465.500580,877.044556 465.997375,877.244507   C466.846436,877.295776 467.198730,877.147034 467.551025,876.998291   C467.551025,876.998291 467.573853,876.946167 467.699341,877.295044   C468.483643,877.823730 469.142456,878.003601 469.858643,878.634521   C469.963989,880.915039 470.051361,882.744446 470.053131,884.573975   C470.061401,893.127380 470.590912,891.990662 462.502319,891.999939   C423.390656,892.044617 384.278900,892.017212 345.167175,892.015381   C345.126648,887.659119 345.086151,883.302917 345.546753,878.501587   C360.040222,878.057434 374.032837,878.096680 388.024597,878.008240   C389.685608,877.997803 391.342224,877.289246 393.000854,876.904297   C393.000854,876.904297 392.973969,876.969604 393.308655,877.099854   C393.737915,876.788879 393.832458,876.347778 393.926971,875.906616   C393.926971,875.906616 393.992828,875.975891 394.295166,876.030884   C394.736450,875.663696 394.875366,875.241516 395.014282,874.819336   C399.352081,863.165039 403.751312,851.533203 408.011414,839.850586   C412.786072,826.756714 417.430115,813.615234 422.139648,800.497559   C427.643005,785.168823 433.245300,769.874878 438.645203,754.509827   C449.129883,724.676453 459.434235,694.779602 469.943115,664.954773   C479.342255,638.279541 488.902832,611.661072 498.417114,585.026428   C506.408844,562.654114 514.480469,540.310181 522.426392,517.921631   C525.552612,509.113220 528.433350,500.217712 531.443970,491.308472   C535.153381,490.211609 537.471741,491.315643 538.839050,495.303314   C545.145020,513.694397 551.635132,532.022644 558.098999,550.359375   C561.986816,561.388489 566.059326,572.353699 569.849060,583.416016   C575.390198,599.590088 580.593628,615.880859 586.230469,632.020874   C593.242310,652.097534 600.618103,672.046753 607.703430,692.098083   C612.213013,704.859802 616.447021,717.718628 620.864197,730.513306   C628.450745,752.488037 635.916260,774.506653 643.743103,796.395813   C652.216919,820.094421 661.053650,843.663208 669.710632,867.296448   C670.784607,870.228333 671.726807,873.208374 673.006226,876.835815   C673.966309,877.486694 674.650269,877.467957 675.746460,877.450439   C691.544373,877.314941 706.929993,877.178101 722.315552,877.041321   C722.315552,877.041321 722.487793,876.874146 722.830811,877.276367   C724.104492,878.420654 725.780945,879.108826 725.839233,879.914062   C726.120422,883.799744 725.965820,887.716919 725.965820,892.001404   C662.061401,892.001404 598.993469,892.001404 535.925476,892.001404   C535.925476,892.001404 535.995728,892.002502 536.034302,891.569153   C536.077026,888.814514 536.352966,886.454712 536.030273,884.179810   C535.300415,879.034363 537.432495,877.833740 542.381226,877.887146   C565.922913,878.140869 589.468872,878.018188 613.013123,877.946899   C614.683044,877.941833 616.350952,877.272400 618.019836,876.911865   C618.019836,876.911865 617.996216,876.998413 618.294800,877.008911   C618.380737,876.571838 618.168030,876.124207 617.955383,875.676514   C617.955383,875.676514 617.919861,875.604187 618.127563,875.199768   C617.908630,873.837280 617.481934,872.879211 617.055237,871.921204   C615.013428,865.187561 613.053955,858.427612 610.910217,851.726624   C607.866943,842.214050 604.712524,832.736633 601.560425,823.259216   C598.044006,812.686646 594.467834,802.133972 590.934265,791.567017   C586.914856,779.547424 582.913818,767.521606 578.192810,755.092041   C577.148315,754.788208 576.815735,754.890930 576.483154,754.993652  M463.769958,736.499939   C465.470886,736.975647 467.170807,737.861938 468.872925,737.866272   C501.830780,737.949646 534.788879,737.940369 567.746887,737.895996   C569.171997,737.894043 570.596497,737.373840 572.325195,736.975037   C572.325195,736.975037 572.650513,737.005615 573.239502,736.882324   C573.196045,736.260071 573.152527,735.637756 572.706116,734.376221   C569.092285,723.295898 565.562622,712.187256 561.845032,701.141846   C556.239502,684.487488 550.458801,667.892151 544.832642,651.244690   C537.513428,629.587769 530.262878,607.907654 523.008118,586.229065   C521.837402,582.730591 520.798401,579.187988 519.698486,575.665833   C516.073364,583.177673 513.429260,590.560120 510.936188,597.993286   C505.805847,613.289551 500.858337,628.647766 495.643036,643.914795   C490.950897,657.650330 485.892456,671.260620 481.193359,684.993835   C475.390686,701.952148 469.792328,718.980347 463.769958,736.499939  z"
   id="path4" />
<path
   fill="#0288CE"
   opacity="1.000000"
   stroke="none"
   d=" M631.523499,291.063782   C631.523499,291.063782 631.491516,291.021027 631.995300,291.199799   C632.826721,291.277649 633.154358,291.176727 633.481995,291.075806   C633.481995,291.075806 633.490845,291.009857 633.847534,291.331604   C635.190002,291.779114 636.175781,292.014771 637.161560,292.014709   C678.131348,292.012238 719.101196,291.988678 760.070984,291.967712   C760.070984,291.967712 760.008240,291.996002 759.946716,292.434448   C759.906189,335.748871 759.927185,378.624786 759.948242,421.500732   C741.909363,429.174591 723.876587,436.862701 705.829956,444.518188   C689.051331,451.635834 672.266846,458.740112 655.468262,465.810638   C639.434204,472.559387 623.374695,479.247559 607.335022,485.983063   C602.832764,487.873688 598.361206,489.837402 593.330872,492.001953   C592.973328,490.586182 592.218506,489.283997 592.424377,488.157379   C595.151123,473.237152 598.232422,458.379120 600.783569,443.430145   C603.759644,425.991852 606.166626,408.457001 609.079773,391.007294   C611.039795,379.266602 613.578735,367.623535 615.620422,355.895294   C617.586548,344.601013 619.156189,333.238190 621.071655,321.934540   C622.423584,313.956818 624.085449,306.032013 625.555054,298.073639   C625.882568,296.300018 625.984375,294.484680 626.887573,292.447021   C628.897888,291.824890 630.210693,291.444336 631.523499,291.063782  z"
   id="path5" />
<path
   fill="#6D8E69"
   opacity="1.000000"
   stroke="none"
   d=" M1175.398682,883.986206   C1174.999268,818.918762 1174.993530,753.643616 1174.991699,688.368469   C1174.989990,628.251160 1174.995605,568.133850 1174.983398,508.016510   C1174.982788,505.521179 1174.833740,503.025848 1174.870361,500.039246   C1175.337280,500.717102 1175.993774,501.886169 1175.994019,503.055389   C1176.026611,626.980652 1176.011353,750.905884 1175.987915,874.831116   C1175.987305,877.813599 1175.861572,880.796082 1175.398682,883.986206  z"
   id="path6" />
<path
   fill="#E0FFDE"
   opacity="1.000000"
   stroke="none"
   d=" M759.680176,504.009521   C760.115784,511.948120 760.201111,520.111450 760.201904,528.274780   C760.213135,645.271606 760.212891,762.268494 760.149780,879.744263   C759.725586,878.738953 759.053833,877.254822 759.053162,875.770508   C758.997803,753.076416 758.993774,630.382324 759.000122,507.688232   C759.000183,506.536896 759.189514,505.385559 759.680176,504.009521  z"
   id="path7" />
<path
   fill="#3D7244"
   opacity="1.000000"
   stroke="none"
   d=" M26.649389,501.151886   C27.000948,594.339600 27.022844,687.811279 26.999979,781.768738   C26.593670,780.898193 25.915787,779.541931 25.915720,778.185608   C25.911236,687.254883 25.960022,596.324097 26.019638,505.393372   C26.020502,504.074127 26.215391,502.755035 26.649389,501.151886  z"
   id="path8" />
<path
   fill="#B6DAB5"
   opacity="1.000000"
   stroke="none"
   d=" M1088.412109,615.328857   C1088.650879,615.414551 1089.871094,615.580383 1089.880615,615.799133   C1090.025635,619.123291 1090.032959,622.454407 1090.032837,625.783875   C1090.028687,709.534119 1090.018188,793.284363 1090.021973,877.034607   C1090.022095,879.196106 1090.169434,881.357666 1090.145264,884.014160   C1089.692261,882.825500 1089.036621,881.142029 1089.035645,879.458191   C1088.988892,793.109314 1088.999146,706.760498 1088.994019,620.411621   C1088.994019,618.752258 1088.887329,617.092896 1088.412109,615.328857  z"
   id="path9" />
<path
   fill="#CBE6CB"
   opacity="1.000000"
   stroke="none"
   d=" M846.418335,881.812134   C846.016785,794.271301 846.007080,706.553101 846.122559,618.834961   C846.124023,617.727539 844.047729,614.538818 848.043518,615.600342   C847.679626,617.788330 847.034180,619.599548 847.033203,621.411072   C846.987549,706.658386 846.998657,791.905701 846.994080,877.153015   C846.994019,878.646912 846.880310,880.140808 846.418335,881.812134  z"
   id="path10" />
<path
   fill="#FFFFFF"
   opacity="1.000000"
   stroke="none"
   d=" M333.412689,771.830811   C333.013519,682.996094 333.022278,593.992493 333.103424,504.526184   C333.450623,505.280060 333.965515,506.496582 333.966034,507.713287   C334.003448,595.034973 334.000244,682.356628 333.992218,769.678284   C333.992157,770.339539 333.880280,771.000732 333.412689,771.830811  z"
   id="path11" />
<path
   fill="#B6DAB5"
   opacity="1.000000"
   stroke="none"
   d=" M112.809196,765.327515   C112.523132,761.990173 111.988373,758.197388 111.986275,754.404358   C111.940582,671.679138 111.954826,588.953918 111.950928,506.228729   C111.950859,504.732117 111.870293,503.235504 111.886047,501.257751   C112.296616,502.103607 112.955574,503.430481 112.956375,504.757721   C113.007843,589.633118 113.007095,674.508606 113.000282,759.384033   C113.000137,761.213318 112.875275,763.042664 112.809196,765.327515  z"
   id="path12" />
<path
   fill="#E0FFDE"
   opacity="1.000000"
   stroke="none"
   d=" M246.645752,503.126831   C247.036652,587.976440 247.030472,673.026489 246.990906,758.545410   C246.644272,757.836182 246.057510,756.658386 246.056839,755.480164   C246.010147,672.086060 246.009659,588.692017 246.016434,505.297913   C246.016495,504.641052 246.167923,503.984161 246.645752,503.126831  z"
   id="path13" />
<path
   fill="#92B792"
   opacity="1.000000"
   stroke="none"
   d=" M536.149414,892.379272   C598.993469,892.001404 662.061401,892.001404 725.965820,892.001404   C725.965820,887.716919 726.120422,883.799744 725.839233,879.914062   C725.780945,879.108826 724.104492,878.420654 722.936279,877.333618   C724.010132,876.988708 725.321472,876.988708 726.835693,876.988708   C726.835693,882.181946 726.835693,887.290649 726.835693,892.722656   C726.154114,892.808350 725.390198,892.988464 724.626282,892.988647   C663.032410,893.000427 601.438538,892.999695 539.844666,892.987244   C538.687561,892.987061 537.530396,892.837219 536.149414,892.379272  z"
   id="path14" />
<path
   fill="#7CA983"
   opacity="1.000000"
   stroke="none"
   d=" M345.353088,892.398438   C384.278900,892.017212 423.390656,892.044617 462.502319,891.999939   C470.590912,891.990662 470.061401,893.127380 470.053131,884.573975   C470.051361,882.744446 469.963989,880.915039 470.127869,878.588379   C470.520203,878.066223 470.700745,878.041321 470.881317,878.016479   C470.900665,882.344666 470.925201,886.672852 470.931946,891.001038   C470.932709,891.476746 470.831421,891.952515 470.740814,892.750854   C469.789612,892.828430 468.847626,892.972229 467.905609,892.972412   C427.944031,892.980835 387.982422,892.977600 348.020844,892.965637   C347.193542,892.965393 346.366302,892.845520 345.353088,892.398438  z"
   id="path15" />
<path
   fill="#B2E3FF"
   opacity="1.000000"
   stroke="none"
   d=" M760.282715,421.182922   C759.927185,378.624786 759.906189,335.748871 759.935059,292.402069   C760.323730,293.081909 760.957214,294.232269 760.958679,295.383423   C761.009094,336.402405 761.002686,377.421417 760.984192,418.440460   C760.983887,419.248749 760.744934,420.056885 760.282715,421.182922  z"
   id="path16" />
<path
   fill="#7CB6D3"
   opacity="1.000000"
   stroke="none"
   d=" M759.856934,291.583313   C719.101196,291.988678 678.131348,292.012238 637.161560,292.014709   C636.175781,292.014771 635.190002,291.779114 633.845642,291.361755   C675.539001,291.113068 717.591003,291.156006 759.856934,291.583313  z"
   id="path17" />
<path
   fill="#7CA983"
   opacity="1.000000"
   stroke="none"
   d=" M458.390137,755.173950   C458.956238,754.712097 459.882843,754.003052 460.810333,754.001953   C498.435547,753.955566 536.060852,753.971130 573.686096,753.997742   C574.336243,753.998169 574.986206,754.229797 575.944458,754.678955   C540.325317,755.007263 504.397980,755.003906 468.470642,755.023499   C465.230774,755.025269 461.990936,755.175659 458.390137,755.173950  z"
   id="path18" />
<path
   fill="#8EB48F"
   opacity="1.000000"
   stroke="none"
   d=" M617.550293,876.950745   C616.350952,877.272400 614.683044,877.941833 613.013123,877.946899   C589.468872,878.018188 565.922913,878.140869 542.381226,877.887146   C537.432495,877.833740 535.300415,879.034363 536.030273,884.179810   C536.352966,886.454712 536.077026,888.814514 536.032776,891.604248   C535.491028,887.279114 534.989441,882.485535 534.414246,876.989624   C562.406067,876.989624 589.743408,876.989624 617.550293,876.950745  z"
   id="path19" />
<path
   fill="#92B792"
   opacity="1.000000"
   stroke="none"
   d=" M1168.903809,492.510986   C1150.451904,492.946838 1131.826538,492.953461 1113.201172,493.002441   C1102.039673,493.031769 1090.878296,493.127319 1079.237061,493.114197   C1079.572021,492.677826 1080.386841,492.008301 1081.201782,492.008087   C1110.378052,491.999817 1139.554199,492.054047 1168.903809,492.510986  z"
   id="path20" />
<path
   fill="#92B792"
   opacity="1.000000"
   stroke="none"
   d=" M856.907837,492.687378   C827.531067,493.157776 798.076416,493.174866 768.131836,493.117737   C768.643860,492.687744 769.645081,492.023682 770.647949,492.021027   C799.061462,491.946045 827.475159,491.936584 855.888794,491.931458   C856.202515,491.931396 856.516296,492.128845 856.907837,492.687378  z"
   id="path21" />
<path
   fill="#7CA983"
   opacity="1.000000"
   stroke="none"
   d=" M1096.885742,891.363953   C1120.212402,890.910889 1143.781128,890.851624 1167.834717,890.880615   C1167.818970,891.326294 1167.317627,891.996826 1166.817749,891.995911   C1143.587769,891.953247 1120.357910,891.852112 1096.885742,891.363953  z"
   id="path22" />
<path
   fill="#7CA983"
   opacity="1.000000"
   stroke="none"
   d=" M767.919556,891.348755   C791.203369,890.911438 814.732605,890.862000 838.737183,890.906006   C838.732300,891.356384 838.251404,892.026550 837.772217,892.025330   C814.569702,891.965454 791.367371,891.847778 767.919556,891.348755  z"
   id="path23" />
<path
   fill="#92B792"
   opacity="1.000000"
   stroke="none"
   d=" M324.818695,492.679596   C301.857086,493.131836 278.823364,493.135925 255.313522,493.078552   C255.316833,492.669312 255.796738,492.016663 256.275665,492.017395   C279.099335,492.053162 301.922974,492.145538 324.818695,492.679596  z"
   id="path24" />
<path
   fill="#92B792"
   opacity="1.000000"
   stroke="none"
   d=" M104.030449,492.612183   C81.059174,493.054962 57.862759,493.103455 34.178291,493.096191   C34.354607,492.683746 35.019356,492.014801 35.683277,492.015594   C58.390671,492.043732 81.097984,492.135345 104.030449,492.612183  z"
   id="path25" />
<path
   fill="#FFFFFF"
   opacity="1.000000"
   stroke="none"
   d=" M722.059204,876.665161   C706.929993,877.178101 691.544373,877.314941 675.746094,877.260376   C675.333374,877.069031 674.976624,876.937439 674.976624,876.937439   C675.477539,876.636230 675.979126,876.070923 676.479248,876.072205   C691.587158,876.110107 706.695007,876.203918 722.059204,876.665161  z"
   id="path26" />
<path
   fill="#92B792"
   opacity="1.000000"
   stroke="none"
   d=" M392.532318,876.939331   C391.342224,877.289246 389.685608,877.997803 388.024597,878.008240   C374.032837,878.096680 360.040222,878.057434 345.590393,878.040039   C346.583191,877.677673 348.031860,877.039185 349.484009,877.031128   C363.676941,876.952026 377.870453,876.978210 392.532318,876.939331  z"
   id="path27" />
<path
   fill="#92B792"
   opacity="1.000000"
   stroke="none"
   d=" M462.773041,876.988770   C461.889313,877.317566 460.511780,877.933533 459.130005,877.943237   C446.160004,878.034424 433.188904,878.069031 420.219360,877.964661   C418.949951,877.954407 417.688934,876.903748 416.745911,876.150757   C418.544556,876.307068 420.019653,876.936646 421.498260,876.945129   C435.090912,877.022949 448.684204,876.993103 462.773041,876.988770  z"
   id="path28" />
<path
   fill="#B6DAB5"
   opacity="1.000000"
   stroke="none"
   d=" M163.010880,903.360107   C175.214996,902.837830 187.624222,902.720703 200.386887,902.688782   C199.408966,903.203064 198.077713,904.002563 196.746185,904.002991   C185.569473,904.006775 174.392715,903.863892 163.010880,903.360107  z"
   id="path29" />
<path
   fill="#B6DAB5"
   opacity="1.000000"
   stroke="none"
   d=" M157.610809,902.779053   C158.540756,902.896912 159.836319,903.020142 161.371933,902.928711   C160.400131,902.737549 159.188278,902.760925 157.610809,902.779053  z"
   id="path30" />
<path
   fill="#7CB6D3"
   opacity="1.000000"
   stroke="none"
   d=" M631.076843,291.034546   C630.210693,291.444336 628.897888,291.824890 627.158691,292.183716   C628.031616,291.776428 629.330933,291.390900 631.076843,291.034546  z"
   id="path31" />
<path
   fill="#92B792"
   opacity="1.000000"
   stroke="none"
   d=" M470.814758,877.634033   C470.700745,878.041321 470.520203,878.066223 470.070435,878.137329   C469.142456,878.003601 468.483643,877.823730 467.723450,877.310120   C468.664124,877.068115 469.706146,877.159851 470.814758,877.634033  z"
   id="path32" />
<path
   fill="#8EB48F"
   opacity="1.000000"
   stroke="none"
   d=" M616.996338,872.326660   C617.481934,872.879211 617.908630,873.837280 618.163025,875.180603   C617.639648,874.621277 617.288513,873.676636 616.996338,872.326660  z"
   id="path33" />
<path
   fill="#7CA983"
   opacity="1.000000"
   stroke="none"
   d=" M1170.304565,890.789307   C1170.522461,890.262756 1171.028687,889.664795 1171.850342,889.016846   C1171.641602,889.550476 1171.117310,890.134216 1170.304565,890.789307  z"
   id="path34" />
<path
   fill="#92B792"
   opacity="1.000000"
   stroke="none"
   d=" M674.641479,876.962402   C674.976624,876.937439 675.333374,877.069031 675.333740,877.259155   C674.650269,877.467957 673.966309,877.486694 673.130615,877.170166   C673.421265,876.885742 673.863831,876.936584 674.641479,876.962402  z"
   id="path35" />
<path
   fill="#92B792"
   opacity="1.000000"
   stroke="none"
   d=" M467.330200,876.691650   C467.198730,877.147034 466.846436,877.295776 465.967407,877.215698   C465.996918,876.786255 466.553162,876.585632 467.330200,876.691650  z"
   id="path36" />
<path
   fill="#8EB48F"
   opacity="1.000000"
   stroke="none"
   d=" M617.934387,876.000610   C618.168030,876.124207 618.380737,876.571838 618.251587,876.996826   C617.910950,876.757751 617.912170,876.541199 617.934387,876.000610  z"
   id="path37" />
<path
   fill="#92B792"
   opacity="1.000000"
   stroke="none"
   d=" M465.335022,876.684814   C465.211273,877.136292 464.862091,877.285767 463.985474,877.217712   C464.008545,876.794434 464.559082,876.588562 465.335022,876.684814  z"
   id="path38" />
<path
   fill="#92B792"
   opacity="1.000000"
   stroke="none"
   d=" M393.644775,875.936707   C393.832458,876.347778 393.737915,876.788879 393.277832,877.082642   C393.062408,876.612427 393.212494,876.289612 393.644775,875.936707  z"
   id="path39" />
<path
   fill="#92B792"
   opacity="1.000000"
   stroke="none"
   d=" M417.173645,875.975830   C417.094543,875.808960 417.255920,875.569092 417.637726,875.241577   C417.836731,875.475952 417.688721,875.725647 417.173645,875.975830  z"
   id="path40" />
<path
   fill="#92B792"
   opacity="1.000000"
   stroke="none"
   d=" M394.729370,874.889526   C394.875366,875.241516 394.736450,875.663696 394.251831,876.010803   C394.085541,875.610352 394.264984,875.285034 394.729370,874.889526  z"
   id="path41" />
<path
   fill="#7CA983"
   opacity="1.000000"
   stroke="none"
   d=" M576.686523,755.303589   C576.815735,754.890930 577.148315,754.788208 577.980286,754.839355   C577.949768,755.200073 577.419861,755.406860 576.686523,755.303589  z"
   id="path42" />
<path
   fill="#92B792"
   opacity="1.000000"
   stroke="none"
   d=" M1169.972778,493.774597   C1169.562988,493.880280 1169.194702,493.697052 1168.950439,493.214020   C1169.387695,493.104706 1169.701050,493.295197 1169.972778,493.774597  z"
   id="path43" />
<path
   fill="#7CB6D3"
   opacity="1.000000"
   stroke="none"
   d=" M633.285278,290.755585   C633.154358,291.176727 632.826721,291.277649 632.007568,291.226440   C632.040283,290.861359 632.564392,290.648346 633.285278,290.755585  z"
   id="path44" />

<path
   fill="#6D8E69"
   opacity="1.000000"
   stroke="none"
   d=" M463.937836,736.239136   C466.005951,736.337219 467.905579,737.005493 469.806488,737.008972   C503.561981,737.070679 537.317627,737.051636 571.547241,737.072510   C570.596497,737.373840 569.171997,737.894043 567.746887,737.895996   C534.788879,737.940369 501.830780,737.949646 468.872925,737.866272   C467.170807,737.861938 465.470886,736.975647 463.937836,736.239136  z"
   id="path46" />
<path
   fill="#6D8E69"
   opacity="1.000000"
   stroke="none"
   d=" M572.944946,736.943970   C572.758667,736.565552 572.866882,736.125488 573.042114,735.350464   C573.152527,735.637756 573.196045,736.260071 572.944946,736.943970  z"
   id="path47" />
</svg>
